<svg version="1.1" xmlns="http://www.w3.org/2000/svg" viewBox="0 0 233.66665649414062 182.75001525878906" width="233.66665649414062" height="182.75001525878906" filter="invert(93%) hue-rotate(180deg)">
  <!-- svg-source:excalidraw -->
  
  <defs>
    <style>
      @font-face {
        font-family: "Virgil";
        src: url("https://unpkg.com/@zsviczian/excalidraw@0.12.0-obsidian-11/dist/excalidraw-assets/Virgil.woff2");
      }
      @font-face {
        font-family: "Cascadia";
        src: url("https://unpkg.com/@zsviczian/excalidraw@0.12.0-obsidian-11/dist/excalidraw-assets/Cascadia.woff2");
      }
    </style>
  </defs>
  <rect x="0" y="0" width="233.66665649414062" height="182.75001525878906" fill="#ffffff"/><g transform="translate(133.66665649414062 15.333343505859375) rotate(0 -9.66668701171875 18.999984741210938)" stroke="none"><path fill="#000000" d="M -1.48,-0.29 Q -1.48,-0.29 -2.04,-1.40 -2.59,-2.51 -4.22,-1.14 -5.84,0.22 -7.98,1.65 -10.12,3.08 -12.53,4.99 -14.94,6.91 -17.03,8.98 -19.12,11.05 -20.68,13.13 -22.24,15.22 -23.22,17.12 -24.20,19.01 -24.98,21.08 -25.75,23.14 -26.04,24.95 -26.32,26.76 -26.45,28.62 -26.59,30.48 -26.12,31.79 -25.66,33.10 -25.10,34.48 -24.54,35.86 -23.86,36.75 -23.19,37.64 -21.25,38.48 -19.30,39.31 -17.46,39.47 -15.62,39.62 -13.41,39.16 -11.20,38.70 -8.37,37.79 -5.54,36.88 -2.22,35.07 1.09,33.27 3.07,31.96 5.05,30.65 7.22,30.05 9.38,29.46 9.55,29.32 9.71,29.19 9.91,29.11 10.11,29.04 10.32,29.03 10.53,29.02 10.74,29.08 10.94,29.14 11.12,29.26 11.29,29.39 11.42,29.56 11.54,29.73 11.61,29.93 11.67,30.13 11.67,30.35 11.66,30.56 11.59,30.76 11.52,30.96 11.39,31.13 11.26,31.29 11.08,31.41 10.90,31.53 10.70,31.58 10.49,31.63 10.28,31.62 10.07,31.60 9.87,31.52 9.68,31.44 9.52,31.30 9.36,31.16 9.25,30.98 9.14,30.79 9.10,30.58 9.06,30.38 9.09,30.16 9.11,29.95 9.20,29.76 9.30,29.57 9.45,29.42 9.59,29.27 9.78,29.17 9.97,29.07 10.18,29.04 10.39,29.01 10.60,29.05 10.81,29.09 11.00,29.19 11.18,29.29 11.33,29.45 11.47,29.61 11.56,29.80 11.64,29.99 11.66,30.21 11.68,30.42 11.63,30.62 11.58,30.83 11.47,31.01 11.36,31.19 11.36,31.19 11.36,31.19 10.04,33.67 8.72,36.15 6.49,37.64 4.26,39.14 0.39,41.22 -3.48,43.30 -6.75,44.33 -10.02,45.35 -13.15,45.83 -16.28,46.32 -18.89,45.98 -21.50,45.64 -23.59,44.79 -25.69,43.94 -27.14,42.66 -28.58,41.38 -29.57,39.81 -30.56,38.24 -31.20,36.53 -31.84,34.82 -32.39,32.48 -32.94,30.13 -32.77,27.91 -32.60,25.68 -32.15,23.29 -31.71,20.89 -30.78,18.47 -29.84,16.06 -28.60,13.72 -27.36,11.38 -25.50,8.93 -23.64,6.47 -21.28,4.17 -18.93,1.86 -16.30,-0.21 -13.66,-2.28 -11.15,-3.91 -8.63,-5.54 -6.47,-6.54 -4.30,-7.54 -2.38,-7.84 -0.46,-8.15 0.93,-7.44 2.33,-6.73 3.02,-5.35 3.70,-3.96 3.53,-2.64 3.36,-1.32 2.42,-0.51 1.48,0.29 1.42,0.47 1.37,0.64 1.27,0.79 1.17,0.95 1.04,1.08 0.91,1.20 0.75,1.30 0.59,1.39 0.42,1.44 0.24,1.49 0.06,1.50 -0.11,1.51 -0.29,1.47 -0.47,1.44 -0.63,1.36 -0.80,1.28 -0.94,1.16 -1.08,1.05 -1.19,0.90 -1.31,0.76 -1.38,0.59 -1.45,0.42 -1.48,0.24 -1.51,0.06 -1.50,-0.11 -1.48,-0.29 -1.48,-0.29 L -1.48,-0.29 Z"/></g><g transform="translate(161.66665649414062 24.666656494140625) rotate(0 5.666656494140625 13.666671752929688)" stroke="none"><path fill="#000000" d="M 1.46,1.95 Q 1.46,1.95 0.10,3.33 -1.25,4.71 -2.37,5.80 -3.50,6.90 -3.64,5.80 -3.78,4.70 -0.87,4.31 2.04,3.91 5.25,3.25 8.45,2.59 10.53,2.29 12.61,1.99 13.92,1.85 15.24,1.72 16.68,2.05 18.13,2.38 19.19,3.35 20.24,4.31 20.59,5.78 20.94,7.26 20.32,9.31 19.70,11.36 18.05,13.32 16.39,15.27 14.37,17.15 12.35,19.03 10.10,20.82 7.84,22.62 5.71,24.15 3.58,25.68 1.62,26.85 -0.32,28.02 -1.99,28.61 -3.66,29.20 -3.96,28.84 -4.27,28.48 -4.56,28.56 -4.84,28.65 -5.13,28.67 -5.43,28.68 -5.72,28.63 -6.01,28.57 -6.28,28.45 -6.54,28.33 -6.78,28.14 -7.01,27.96 -7.19,27.73 -7.37,27.49 -7.49,27.22 -7.61,26.95 -7.66,26.66 -7.71,26.37 -7.69,26.08 -7.67,25.78 -7.58,25.50 -7.49,25.22 -7.34,24.97 -7.18,24.71 -6.97,24.51 -6.76,24.30 -6.51,24.15 -6.25,24.00 -5.56,23.11 -4.87,22.22 -4.75,22.04 -4.64,21.86 -4.47,21.73 -4.30,21.60 -4.10,21.54 -3.90,21.47 -3.68,21.47 -3.47,21.46 -3.27,21.53 -3.07,21.60 -2.90,21.73 -2.73,21.85 -2.61,22.03 -2.49,22.20 -2.43,22.41 -2.37,22.61 -2.38,22.82 -2.39,23.04 -2.47,23.23 -2.55,23.43 -2.69,23.60 -2.82,23.76 -3.00,23.87 -3.19,23.98 -3.39,24.03 -3.60,24.07 -3.81,24.05 -4.02,24.03 -4.22,23.94 -4.41,23.85 -4.56,23.71 -4.72,23.56 -4.82,23.37 -4.92,23.19 -4.96,22.98 -4.99,22.77 -4.96,22.56 -4.92,22.35 -4.83,22.16 -4.73,21.97 -4.57,21.83 -4.42,21.68 -4.23,21.59 -4.04,21.50 -3.82,21.47 -3.61,21.45 -3.41,21.49 -3.20,21.54 -3.02,21.65 -2.83,21.76 -2.69,21.92 -2.56,22.08 -2.48,22.28 -2.40,22.47 -2.38,22.68 -2.37,22.90 -2.43,23.10 -2.48,23.31 -2.48,23.31 -2.48,23.31 -3.38,25.89 -4.27,28.48 -4.56,28.56 -4.84,28.65 -5.13,28.67 -5.43,28.68 -5.72,28.63 -6.01,28.57 -6.28,28.45 -6.54,28.33 -6.78,28.14 -7.01,27.96 -7.19,27.73 -7.37,27.49 -7.49,27.22 -7.61,26.95 -7.66,26.66 -7.71,26.37 -7.69,26.08 -7.67,25.78 -7.58,25.50 -7.49,25.22 -7.34,24.97 -7.18,24.72 -6.97,24.51 -6.76,24.30 -6.51,24.15 -6.25,24.00 -4.91,23.53 -3.57,23.06 -1.85,21.80 -0.13,20.55 1.86,19.09 3.86,17.62 5.93,15.98 7.99,14.34 9.82,12.64 11.65,10.94 12.74,9.89 13.83,8.83 14.81,8.40 15.79,7.97 14.65,8.08 13.51,8.19 11.61,8.46 9.71,8.74 6.26,9.44 2.82,10.14 0.80,10.39 -1.21,10.64 -3.11,10.74 -5.00,10.84 -6.41,10.30 -7.81,9.77 -8.47,8.54 -9.13,7.32 -8.66,5.21 -8.20,3.10 -7.43,2.21 -6.66,1.31 -5.76,0.60 -4.87,-0.11 -3.17,-1.03 -1.46,-1.95 -1.21,-2.10 -0.95,-2.24 -0.67,-2.32 -0.38,-2.41 -0.09,-2.42 0.19,-2.43 0.48,-2.37 0.77,-2.31 1.04,-2.18 1.30,-2.06 1.53,-1.87 1.76,-1.69 1.94,-1.45 2.11,-1.21 2.23,-0.94 2.34,-0.67 2.39,-0.38 2.44,-0.09 2.41,0.19 2.39,0.49 2.29,0.77 2.20,1.04 2.04,1.29 1.89,1.54 1.67,1.75 1.46,1.95 1.46,1.95 L 1.46,1.95 Z"/></g><g transform="translate(189.66665649414062 22) rotate(0 -9.66668701171875 14.666671752929688)" stroke="none"><path fill="#000000" d="M 0.43,1.73 Q 0.43,1.73 -0.97,2.56 -2.39,3.38 -3.78,4.29 -5.17,5.20 -5.65,4.23 -6.13,3.27 -4.34,3.53 -2.56,3.79 -0.78,3.53 1.00,3.28 3.16,3.65 5.33,4.02 6.20,5.01 7.06,6.01 7.35,7.80 7.64,9.59 7.42,10.71 7.20,11.84 6.60,13.03 6.00,14.21 4.77,15.50 3.55,16.80 1.92,18.21 0.30,19.63 -1.77,21.22 -3.84,22.82 -7.47,25.22 -11.10,27.63 -13.70,29.02 -16.29,30.42 -19.37,30.65 -22.45,30.87 -22.66,30.90 -22.87,30.94 -23.08,30.90 -23.29,30.86 -23.47,30.76 -23.66,30.66 -23.81,30.51 -23.95,30.35 -24.04,30.16 -24.12,29.96 -24.15,29.75 -24.17,29.54 -24.12,29.33 -24.07,29.13 -23.96,28.94 -23.85,28.76 -23.69,28.63 -23.52,28.49 -23.32,28.41 -23.13,28.34 -22.91,28.33 -22.70,28.32 -22.50,28.38 -22.29,28.44 -22.12,28.56 -21.94,28.68 -21.82,28.85 -21.69,29.02 -21.62,29.22 -21.56,29.42 -21.56,29.63 -21.56,29.85 -21.63,30.05 -21.70,30.25 -21.83,30.42 -21.96,30.58 -22.14,30.70 -22.32,30.82 -22.52,30.87 -22.73,30.93 -22.94,30.92 -23.15,30.90 -23.35,30.82 -23.54,30.74 -23.70,30.60 -23.87,30.46 -23.97,30.28 -24.08,30.10 -24.12,29.89 -24.17,29.68 -24.14,29.47 -24.12,29.26 -24.03,29.07 -23.94,28.88 -23.79,28.72 -23.64,28.57 -23.45,28.47 -23.26,28.37 -23.26,28.37 -23.26,28.37 -21.18,26.91 -19.09,25.45 -16.76,24.06 -14.43,22.67 -10.99,20.32 -7.55,17.97 -5.62,16.50 -3.69,15.02 -1.50,13.14 0.68,11.26 1.77,10.10 2.86,8.94 1.29,8.98 -0.26,9.03 -2.57,9.15 -4.89,9.27 -6.08,9.03 -7.27,8.79 -8.29,8.05 -9.31,7.30 -9.80,5.55 -10.28,3.80 -9.34,2.39 -8.39,0.97 -7.39,0.23 -6.38,-0.50 -5.06,-1.17 -3.74,-1.85 -2.08,-1.79 -0.43,-1.73 -0.22,-1.76 -0.00,-1.79 0.20,-1.76 0.42,-1.74 0.62,-1.66 0.82,-1.59 1.00,-1.46 1.18,-1.34 1.32,-1.18 1.47,-1.02 1.57,-0.83 1.67,-0.64 1.72,-0.43 1.77,-0.22 1.78,-0.00 1.78,0.21 1.73,0.42 1.67,0.63 1.57,0.82 1.47,1.01 1.33,1.17 1.19,1.33 1.01,1.46 0.83,1.58 0.63,1.66 0.43,1.73 0.43,1.73 L 0.43,1.73 Z"/></g><g transform="translate(201.66665649414062 48.666656494140625) rotate(0 -10.66668701171875 10)" stroke="none"><path fill="#000000" d="M 1.77,-0.71 Q 1.77,-0.71 2.32,0.18 2.86,1.07 3.69,2.20 4.51,3.34 4.95,4.75 5.40,6.16 5.01,7.17 4.62,8.18 3.29,9.37 1.95,10.56 0.97,11.29 -0.01,12.02 -1.61,12.86 -3.22,13.70 -5.10,14.74 -6.99,15.78 -9.10,16.68 -11.21,17.59 -12.65,18.43 -14.09,19.28 -15.72,19.96 -17.36,20.64 -19.09,21.32 -20.83,21.99 -21.70,21.61 -22.57,21.24 -22.72,21.26 -22.88,21.28 -23.04,21.26 -23.19,21.24 -23.34,21.19 -23.49,21.13 -23.62,21.05 -23.75,20.96 -23.86,20.84 -23.97,20.72 -24.04,20.58 -24.12,20.44 -24.16,20.29 -24.20,20.14 -24.20,19.98 -24.20,19.82 -24.16,19.67 -24.13,19.51 -24.05,19.37 -23.98,19.23 -23.88,19.11 -23.77,18.99 -23.65,18.90 -23.52,18.81 -23.37,18.75 -23.22,18.69 -22.77,18.74 -22.31,18.79 -22.14,18.91 -21.97,19.03 -21.84,19.20 -21.72,19.38 -21.66,19.58 -21.59,19.78 -21.60,20.00 -21.60,20.21 -21.68,20.41 -21.75,20.61 -21.88,20.77 -22.01,20.94 -22.19,21.05 -22.37,21.17 -22.58,21.22 -22.78,21.27 -22.99,21.26 -23.21,21.24 -23.40,21.16 -23.60,21.07 -23.76,20.93 -23.91,20.79 -24.02,20.61 -24.12,20.42 -24.17,20.21 -24.21,20.00 -24.18,19.79 -24.15,19.58 -24.06,19.39 -23.96,19.20 -23.81,19.05 -23.66,18.90 -23.47,18.80 -23.28,18.71 -23.07,18.68 -22.86,18.65 -22.65,18.69 -22.44,18.73 -22.26,18.83 -22.07,18.94 -21.93,19.10 -21.79,19.25 -21.70,19.45 -21.62,19.64 -21.60,19.86 -21.58,20.07 -21.63,20.27 -21.69,20.48 -21.80,20.66 -21.91,20.84 -22.08,20.97 -22.24,21.11 -22.44,21.18 -22.64,21.25 -22.85,21.26 -23.07,21.27 -22.82,21.25 -22.56,21.24 -22.72,21.26 -22.88,21.28 -23.04,21.26 -23.19,21.24 -23.34,21.19 -23.49,21.13 -23.62,21.05 -23.75,20.96 -23.86,20.84 -23.97,20.72 -24.04,20.58 -24.12,20.44 -24.16,20.29 -24.20,20.14 -24.20,19.98 -24.20,19.82 -24.16,19.67 -24.13,19.51 -24.05,19.37 -23.98,19.23 -23.88,19.11 -23.77,18.99 -23.65,18.90 -23.52,18.81 -23.37,18.75 -23.22,18.69 -22.40,17.34 -21.58,15.98 -20.63,15.46 -19.68,14.95 -18.42,14.45 -17.16,13.96 -15.39,12.94 -13.62,11.93 -11.78,11.16 -9.95,10.39 -7.97,9.31 -5.98,8.22 -4.80,7.65 -3.62,7.08 -1.61,6.22 0.40,5.35 -0.46,4.05 -1.33,2.76 -1.55,1.73 -1.77,0.71 -1.83,0.48 -1.89,0.26 -1.89,0.03 -1.90,-0.19 -1.85,-0.42 -1.80,-0.64 -1.69,-0.85 -1.59,-1.05 -1.44,-1.23 -1.29,-1.40 -1.10,-1.54 -0.91,-1.67 -0.70,-1.76 -0.49,-1.84 -0.26,-1.88 -0.03,-1.91 0.19,-1.88 0.42,-1.86 0.64,-1.78 0.85,-1.70 1.05,-1.58 1.24,-1.45 1.39,-1.28 1.55,-1.11 1.66,-0.91 1.77,-0.71 1.77,-0.71 L 1.77,-0.71 Z"/></g><g transform="translate(192.99996948242188 62) rotate(0 2 10.333328247070312)" stroke="none"><path fill="#000000" d="M 2.41,-0.60 Q 2.41,-0.60 3.13,0.84 3.85,2.29 4.39,4.25 4.94,6.20 5.03,7.30 5.11,8.39 5.42,10.03 5.72,11.66 5.74,13.54 5.76,15.43 5.40,17.58 5.04,19.74 5.09,19.95 5.13,20.16 5.11,20.37 5.09,20.58 5.00,20.77 4.91,20.97 4.77,21.12 4.62,21.28 4.44,21.38 4.25,21.48 4.04,21.51 3.83,21.55 3.62,21.52 3.41,21.48 3.22,21.39 3.03,21.29 2.89,21.13 2.74,20.98 2.65,20.79 2.56,20.60 2.54,20.38 2.51,20.17 2.56,19.97 2.60,19.76 2.71,19.58 2.82,19.39 2.98,19.25 3.14,19.12 3.34,19.04 3.53,18.96 3.74,18.94 3.96,18.93 4.16,18.99 4.37,19.04 4.54,19.16 4.72,19.28 4.85,19.45 4.98,19.61 5.05,19.82 5.12,20.02 5.12,20.23 5.12,20.44 5.05,20.64 4.99,20.84 4.86,21.01 4.73,21.18 4.56,21.31 4.38,21.43 4.18,21.48 3.97,21.54 3.76,21.53 3.55,21.52 3.35,21.44 3.15,21.37 2.99,21.23 2.83,21.09 2.72,20.91 2.61,20.73 2.61,20.73 2.61,20.73 1.14,18.86 -0.32,16.99 -0.44,15.51 -0.57,14.04 -0.66,12.54 -0.76,11.05 -1.03,9.96 -1.30,8.86 -1.43,7.52 -1.56,6.17 -1.93,5.00 -2.31,3.83 -2.36,2.22 -2.41,0.60 -2.45,0.30 -2.49,0.00 -2.45,-0.29 -2.42,-0.58 -2.31,-0.87 -2.21,-1.15 -2.04,-1.39 -1.87,-1.64 -1.64,-1.84 -1.42,-2.04 -1.15,-2.18 -0.89,-2.32 -0.60,-2.40 -0.30,-2.47 -0.00,-2.47 0.29,-2.47 0.58,-2.40 0.87,-2.33 1.14,-2.19 1.41,-2.05 1.63,-1.85 1.86,-1.65 2.03,-1.41 2.20,-1.16 2.31,-0.88 2.41,-0.60 2.41,-0.60 L 2.41,-0.60 Z"/></g><g transform="translate(211.66665649414062 76.66665649414062) rotate(0 -14.66668701171875 7)" stroke="none"><path fill="#000000" d="M 1.12,2.13 Q 1.12,2.13 -2.35,4.36 -5.82,6.60 -8.84,7.86 -11.86,9.12 -14.42,10.19 -16.99,11.26 -18.94,11.93 -20.90,12.59 -22.13,13.12 -23.37,13.65 -25.57,14.11 -27.78,14.57 -27.97,14.65 -28.17,14.73 -28.38,14.75 -28.59,14.77 -28.80,14.71 -29.00,14.66 -29.18,14.55 -29.36,14.43 -29.49,14.27 -29.63,14.10 -29.70,13.90 -29.77,13.70 -29.78,13.49 -29.78,13.28 -29.72,13.07 -29.66,12.87 -29.53,12.70 -29.41,12.53 -29.24,12.40 -29.06,12.28 -28.86,12.22 -28.66,12.16 -28.44,12.16 -28.23,12.17 -28.03,12.24 -27.83,12.32 -27.67,12.45 -27.50,12.58 -27.39,12.76 -27.27,12.94 -27.22,13.15 -27.17,13.35 -27.19,13.57 -27.21,13.78 -27.29,13.97 -27.38,14.17 -27.52,14.33 -27.66,14.48 -27.85,14.59 -28.03,14.69 -28.24,14.73 -28.45,14.77 -28.66,14.74 -28.87,14.71 -29.06,14.62 -29.25,14.52 -29.40,14.37 -29.55,14.22 -29.64,14.03 -29.74,13.84 -29.77,13.63 -29.79,13.42 -29.75,13.21 -29.71,13.00 -29.61,12.82 -29.50,12.63 -29.34,12.49 -29.19,12.35 -29.19,12.35 -29.19,12.35 -27.55,10.37 -25.92,8.39 -24.42,7.60 -22.93,6.81 -21.17,6.16 -19.41,5.52 -16.83,4.43 -14.26,3.33 -11.50,2.19 -8.74,1.06 -4.93,-0.53 -1.12,-2.13 -0.85,-2.23 -0.57,-2.34 -0.29,-2.37 -0.00,-2.41 0.28,-2.37 0.57,-2.34 0.84,-2.23 1.11,-2.13 1.35,-1.97 1.59,-1.80 1.78,-1.58 1.98,-1.37 2.11,-1.11 2.25,-0.85 2.32,-0.57 2.39,-0.29 2.39,-0.00 2.39,0.28 2.32,0.57 2.25,0.85 2.12,1.10 1.98,1.36 1.79,1.58 1.60,1.80 1.36,1.96 1.12,2.13 1.12,2.13 L 1.12,2.13 Z"/></g><g transform="translate(208.33328247070312 67.33334350585938) rotate(0 7.66668701171875 4.9999847412109375)" stroke="none"><path fill="#000000" d="M 0.59,-1.19 Q 0.59,-1.19 1.80,-1.61 3.00,-2.03 3.94,-1.17 4.88,-0.32 6.07,1.49 7.25,3.30 8.04,4.53 8.84,5.75 9.56,6.84 10.28,7.93 11.50,9.33 12.72,10.73 12.18,8.86 11.65,7.00 11.25,5.29 10.86,3.58 10.71,0.06 10.56,-3.44 10.52,-3.65 10.49,-3.86 10.53,-4.07 10.57,-4.28 10.67,-4.47 10.77,-4.65 10.93,-4.80 11.08,-4.94 11.28,-5.03 11.47,-5.11 11.68,-5.13 11.90,-5.16 12.10,-5.11 12.31,-5.06 12.49,-4.95 12.67,-4.83 12.81,-4.67 12.94,-4.51 13.02,-4.31 13.09,-4.11 13.10,-3.90 13.11,-3.69 13.05,-3.48 12.99,-3.28 12.87,-3.10 12.75,-2.93 12.58,-2.80 12.41,-2.68 12.20,-2.61 12.00,-2.55 11.79,-2.55 11.58,-2.55 11.38,-2.62 11.18,-2.69 11.01,-2.82 10.84,-2.95 10.72,-3.13 10.61,-3.31 10.55,-3.51 10.50,-3.72 10.51,-3.93 10.53,-4.14 10.61,-4.34 10.69,-4.54 10.83,-4.70 10.97,-4.86 11.15,-4.96 11.34,-5.07 11.54,-5.11 11.75,-5.16 11.96,-5.13 12.17,-5.11 12.37,-5.01 12.56,-4.92 12.71,-4.77 12.86,-4.63 12.96,-4.44 13.06,-4.25 13.06,-4.25 13.06,-4.25 15.07,-1.03 17.09,2.17 17.57,4.36 18.06,6.55 18.18,8.72 18.31,10.90 18.01,12.66 17.72,14.42 17.00,15.63 16.28,16.84 15.05,17.40 13.82,17.95 12.42,17.86 11.01,17.78 9.47,16.42 7.93,15.06 7.20,14.25 6.47,13.44 5.68,12.45 4.90,11.47 4.17,10.35 3.44,9.23 2.63,7.97 1.83,6.70 0.94,5.13 0.05,3.56 -0.26,2.37 -0.59,1.19 -0.72,1.10 -0.86,1.01 -0.97,0.89 -1.08,0.77 -1.15,0.63 -1.23,0.49 -1.27,0.34 -1.31,0.18 -1.32,0.02 -1.32,-0.13 -1.28,-0.29 -1.25,-0.44 -1.18,-0.59 -1.11,-0.73 -1.00,-0.85 -0.90,-0.97 -0.77,-1.07 -0.64,-1.16 -0.49,-1.22 -0.34,-1.28 -0.18,-1.30 -0.02,-1.33 0.13,-1.31 0.29,-1.29 0.44,-1.24 0.59,-1.19 0.59,-1.19 L 0.59,-1.19 Z"/></g><g transform="translate(10 131.0833282470703) rotate(0 2.8333282470703125 14.333343505859375)" stroke="none"><path fill="#000000" d="M 2.50,-0.55 Q 2.50,-0.55 3.22,1.09 3.95,2.74 4.23,4.08 4.52,5.42 4.75,6.69 4.97,7.96 5.18,9.29 5.38,10.62 5.65,11.83 5.91,13.04 6.14,14.44 6.37,15.84 6.56,17.20 6.75,18.56 7.01,19.79 7.26,21.02 7.46,22.19 7.67,23.36 7.15,25.39 6.63,27.42 6.72,27.61 6.81,27.80 6.84,28.01 6.87,28.22 6.83,28.43 6.78,28.64 6.68,28.82 6.57,29.01 6.41,29.15 6.25,29.29 6.06,29.37 5.86,29.45 5.65,29.47 5.44,29.48 5.23,29.43 5.03,29.38 4.85,29.26 4.67,29.15 4.54,28.98 4.41,28.81 4.33,28.61 4.26,28.41 4.26,28.20 4.26,27.99 4.32,27.79 4.38,27.58 4.51,27.41 4.63,27.24 4.81,27.12 4.98,27.00 5.19,26.93 5.39,26.87 5.60,26.88 5.81,26.89 6.01,26.96 6.21,27.04 6.38,27.17 6.54,27.31 6.65,27.49 6.77,27.67 6.82,27.88 6.86,28.08 6.85,28.29 6.83,28.51 6.74,28.70 6.65,28.89 6.51,29.05 6.37,29.21 6.18,29.31 6.00,29.41 5.79,29.45 5.58,29.49 5.37,29.46 5.16,29.43 4.97,29.33 4.78,29.24 4.63,29.08 4.48,28.93 4.48,28.93 4.48,28.93 2.76,26.76 1.03,24.59 0.82,23.48 0.60,22.37 0.31,20.93 0.02,19.50 -0.15,18.20 -0.33,16.90 -0.52,15.65 -0.71,14.40 -0.98,12.98 -1.26,11.56 -1.42,10.31 -1.58,9.07 -1.77,7.88 -1.95,6.70 -2.18,5.43 -2.41,4.15 -2.46,2.35 -2.50,0.55 -2.53,0.24 -2.56,-0.05 -2.52,-0.36 -2.47,-0.67 -2.36,-0.95 -2.24,-1.24 -2.06,-1.49 -1.88,-1.74 -1.64,-1.94 -1.40,-2.14 -1.13,-2.28 -0.85,-2.41 -0.55,-2.48 -0.25,-2.55 0.05,-2.54 0.36,-2.53 0.66,-2.45 0.96,-2.37 1.23,-2.22 1.50,-2.07 1.73,-1.86 1.95,-1.65 2.12,-1.39 2.29,-1.13 2.40,-0.84 2.50,-0.55 2.50,-0.55 L 2.50,-0.55 Z"/></g><g transform="translate(21.666656494140625 136.0833282470703) rotate(0 1.5 8)" stroke="none"><path fill="#000000" d="M 2.16,-0.43 Q 2.16,-0.43 2.94,0.90 3.72,2.24 3.95,3.68 4.18,5.12 4.37,6.50 4.56,7.89 4.74,9.01 4.91,10.14 5.16,11.74 5.40,13.33 4.82,13.59 4.24,13.84 4.24,14.00 4.23,14.16 4.19,14.31 4.15,14.47 4.08,14.61 4.00,14.75 3.90,14.86 3.79,14.98 3.66,15.07 3.53,15.16 3.38,15.21 3.23,15.27 3.07,15.28 2.92,15.30 2.76,15.28 2.60,15.26 2.46,15.20 2.31,15.14 2.18,15.05 2.05,14.96 1.95,14.84 1.84,14.72 1.77,14.58 1.70,14.44 1.66,14.29 1.63,14.13 1.71,13.74 1.79,13.34 1.92,13.18 2.06,13.01 2.23,12.90 2.41,12.78 2.62,12.73 2.83,12.68 3.04,12.70 3.25,12.71 3.44,12.80 3.64,12.88 3.80,13.02 3.96,13.17 4.06,13.35 4.17,13.54 4.21,13.74 4.25,13.95 4.22,14.16 4.19,14.37 4.09,14.56 4.00,14.76 3.85,14.91 3.70,15.06 3.51,15.15 3.32,15.24 3.11,15.27 2.90,15.30 2.69,15.26 2.48,15.22 2.29,15.12 2.11,15.01 1.97,14.85 1.83,14.70 1.74,14.50 1.66,14.31 1.64,14.09 1.62,13.88 1.67,13.68 1.73,13.47 1.84,13.29 1.95,13.11 2.12,12.98 2.29,12.85 2.49,12.77 2.69,12.70 2.90,12.69 3.11,12.69 3.31,12.75 3.52,12.81 3.69,12.94 3.86,13.06 3.99,13.23 4.11,13.41 4.17,13.61 4.23,13.81 4.23,14.02 4.22,14.24 4.23,14.04 4.24,13.84 4.24,14.00 4.23,14.16 4.19,14.31 4.15,14.47 4.08,14.61 4.00,14.75 3.90,14.86 3.79,14.98 3.66,15.07 3.53,15.16 3.38,15.21 3.23,15.27 3.08,15.28 2.92,15.30 2.76,15.28 2.60,15.26 2.46,15.20 2.31,15.14 2.18,15.05 2.05,14.96 1.95,14.84 1.84,14.72 1.77,14.58 1.70,14.44 1.66,14.29 1.63,14.13 0.33,14.09 -0.95,14.05 -1.19,12.58 -1.43,11.11 -1.61,9.94 -1.79,8.77 -1.97,7.45 -2.15,6.13 -2.36,4.81 -2.57,3.50 -2.37,1.96 -2.16,0.43 -2.18,0.16 -2.20,-0.09 -2.16,-0.36 -2.12,-0.62 -2.01,-0.86 -1.90,-1.11 -1.74,-1.32 -1.58,-1.53 -1.38,-1.70 -1.17,-1.87 -0.93,-1.98 -0.69,-2.09 -0.43,-2.15 -0.16,-2.20 0.09,-2.19 0.36,-2.18 0.61,-2.10 0.87,-2.03 1.10,-1.89 1.33,-1.76 1.52,-1.57 1.71,-1.39 1.85,-1.16 2.00,-0.93 2.08,-0.68 2.16,-0.43 2.16,-0.43 L 2.16,-0.43 Z"/></g><g transform="translate(24 146.75001525878906) rotate(0 -6 1.8333282470703125)" stroke="none"><path fill="#000000" d="M 0.49,1.36 Q 0.49,1.36 -0.30,2.45 -1.09,3.54 -2.67,3.99 -4.25,4.44 -5.58,4.80 -6.91,5.15 -9.02,4.91 -11.13,4.67 -11.33,4.75 -11.52,4.83 -11.74,4.85 -11.95,4.86 -12.15,4.81 -12.36,4.76 -12.54,4.64 -12.71,4.52 -12.85,4.36 -12.98,4.19 -13.05,3.99 -13.12,3.79 -13.12,3.58 -13.13,3.37 -13.06,3.16 -13.00,2.96 -12.87,2.79 -12.75,2.62 -12.57,2.50 -12.40,2.37 -12.19,2.31 -11.99,2.25 -11.78,2.26 -11.57,2.27 -11.37,2.35 -11.17,2.42 -11.00,2.56 -10.84,2.69 -10.73,2.87 -10.62,3.05 -10.57,3.26 -10.52,3.46 -10.54,3.68 -10.56,3.89 -10.64,4.08 -10.73,4.28 -10.87,4.43 -11.02,4.59 -11.20,4.69 -11.39,4.79 -11.60,4.83 -11.81,4.87 -12.02,4.84 -12.23,4.81 -12.42,4.71 -12.61,4.62 -12.75,4.46 -12.90,4.31 -12.99,4.12 -13.09,3.93 -13.11,3.72 -13.14,3.51 -13.10,3.30 -13.05,3.09 -12.95,2.91 -12.84,2.72 -12.68,2.58 -12.52,2.44 -12.52,2.44 -12.52,2.44 -10.48,0.73 -8.43,-0.98 -7.06,-1.29 -5.68,-1.60 -4.40,-1.80 -3.11,-2.01 -1.80,-1.69 -0.49,-1.36 -0.32,-1.40 -0.15,-1.44 0.01,-1.44 0.19,-1.44 0.36,-1.39 0.53,-1.35 0.68,-1.27 0.84,-1.18 0.97,-1.06 1.10,-0.95 1.20,-0.80 1.29,-0.65 1.35,-0.49 1.41,-0.32 1.43,-0.15 1.45,0.02 1.43,0.19 1.41,0.36 1.34,0.53 1.28,0.69 1.17,0.83 1.07,0.98 0.94,1.09 0.81,1.21 0.65,1.29 0.49,1.36 0.49,1.36 L 0.49,1.36 Z"/></g><g transform="translate(39.33332824707031 129.0833282470703) rotate(0 -4.1666717529296875 3.1666717529296875)" stroke="none"><path fill="#000000" d="M 0.92,1.13 Q 0.92,1.13 0.40,2.64 -0.12,4.14 -1.07,4.79 -2.02,5.43 -4.81,6.30 -7.60,7.18 -7.79,7.27 -7.98,7.37 -8.19,7.40 -8.40,7.43 -8.61,7.39 -8.81,7.35 -9.00,7.25 -9.18,7.14 -9.33,6.98 -9.47,6.83 -9.55,6.63 -9.64,6.44 -9.66,6.22 -9.68,6.01 -9.63,5.81 -9.57,5.60 -9.46,5.42 -9.35,5.24 -9.18,5.11 -9.02,4.97 -8.82,4.90 -8.62,4.83 -8.41,4.82 -8.19,4.81 -7.99,4.87 -7.79,4.94 -7.61,5.06 -7.44,5.18 -7.32,5.35 -7.19,5.53 -7.13,5.73 -7.07,5.93 -7.07,6.14 -7.08,6.36 -7.15,6.56 -7.22,6.76 -7.35,6.92 -7.49,7.09 -7.66,7.20 -7.84,7.32 -8.05,7.37 -8.25,7.42 -8.47,7.41 -8.68,7.39 -8.87,7.31 -9.07,7.22 -9.23,7.08 -9.39,6.94 -9.49,6.76 -9.60,6.57 -9.64,6.36 -9.68,6.16 -9.65,5.94 -9.62,5.73 -9.53,5.54 -9.44,5.35 -9.29,5.20 -9.14,5.05 -9.14,5.05 -9.14,5.05 -7.95,3.09 -6.76,1.13 -5.42,0.21 -4.08,-0.69 -2.50,-0.91 -0.92,-1.13 -0.78,-1.23 -0.63,-1.32 -0.46,-1.38 -0.29,-1.43 -0.11,-1.45 0.05,-1.46 0.23,-1.43 0.40,-1.41 0.57,-1.34 0.73,-1.27 0.87,-1.16 1.01,-1.06 1.12,-0.92 1.24,-0.78 1.31,-0.62 1.39,-0.46 1.42,-0.29 1.46,-0.11 1.45,0.05 1.44,0.23 1.40,0.40 1.35,0.57 1.26,0.72 1.17,0.88 1.05,1.00 0.92,1.13 0.92,1.13 L 0.92,1.13 Z"/></g><g transform="translate(34 133.4166717529297) rotate(0 2.6666641235351562 7.6666717529296875)" stroke="none"><path fill="#000000" d="M 2.11,-0.84 Q 2.11,-0.84 3.03,0.45 3.96,1.75 4.43,2.96 4.91,4.18 5.44,5.81 5.97,7.45 6.27,8.52 6.58,9.59 6.49,12.07 6.41,14.55 6.47,14.76 6.53,14.96 6.53,15.17 6.52,15.39 6.45,15.58 6.38,15.78 6.24,15.95 6.11,16.11 5.93,16.23 5.75,16.34 5.54,16.39 5.34,16.45 5.13,16.43 4.91,16.41 4.72,16.33 4.52,16.24 4.37,16.10 4.21,15.96 4.10,15.77 4.00,15.59 3.96,15.38 3.92,15.17 3.95,14.96 3.98,14.75 4.07,14.56 4.17,14.37 4.32,14.22 4.47,14.07 4.66,13.97 4.85,13.88 5.06,13.85 5.27,13.82 5.48,13.86 5.69,13.90 5.87,14.01 6.06,14.11 6.20,14.27 6.34,14.43 6.42,14.63 6.51,14.82 6.53,15.03 6.54,15.24 6.49,15.45 6.44,15.66 6.32,15.84 6.21,16.01 6.04,16.15 5.88,16.28 5.68,16.35 5.48,16.43 5.27,16.43 5.05,16.44 4.85,16.37 4.65,16.31 4.48,16.19 4.30,16.06 4.18,15.89 4.06,15.72 4.06,15.72 4.06,15.72 2.53,14.27 1.00,12.82 0.48,11.05 -0.03,9.27 -0.45,7.79 -0.87,6.31 -1.26,5.15 -1.66,3.99 -1.88,2.42 -2.11,0.84 -2.18,0.58 -2.25,0.31 -2.26,0.04 -2.26,-0.23 -2.20,-0.50 -2.14,-0.76 -2.02,-1.01 -1.89,-1.25 -1.71,-1.46 -1.54,-1.67 -1.31,-1.83 -1.09,-1.99 -0.83,-2.09 -0.58,-2.20 -0.31,-2.23 -0.04,-2.27 0.23,-2.24 0.50,-2.22 0.76,-2.12 1.02,-2.03 1.25,-1.88 1.47,-1.73 1.66,-1.52 1.85,-1.32 1.98,-1.08 2.11,-0.84 2.11,-0.84 L 2.11,-0.84 Z"/></g><g transform="translate(45 147.0833282470703) rotate(0 5.999992370605469 -8.666656494140625)" stroke="none"><path fill="#000000" d="M -1.89,0.34 Q -1.89,0.34 -2.50,-0.63 -3.11,-1.61 -3.55,-3.51 -3.98,-5.41 -4.21,-6.61 -4.44,-7.82 -4.73,-9.58 -5.02,-11.33 -5.14,-12.41 -5.27,-13.49 -5.34,-14.67 -5.41,-15.85 -5.15,-17.07 -4.89,-18.28 -3.63,-19.16 -2.38,-20.05 -0.68,-19.53 1.01,-19.02 1.97,-17.92 2.94,-16.82 3.64,-15.73 4.33,-14.63 4.95,-13.68 5.57,-12.73 6.17,-11.66 6.78,-10.59 7.48,-9.39 8.19,-8.19 8.42,-7.79 8.64,-7.38 8.81,-7.06 8.98,-6.74 9.07,-6.39 9.16,-6.04 9.16,-5.68 9.17,-5.32 9.08,-4.97 9.00,-4.62 8.83,-4.30 8.67,-3.98 8.43,-3.71 8.19,-3.44 7.90,-3.23 7.60,-3.02 7.27,-2.89 6.93,-2.76 6.57,-2.72 6.22,-2.67 5.86,-2.71 5.50,-2.75 5.16,-2.88 4.82,-3.00 4.52,-3.21 4.23,-3.41 3.99,-3.68 3.74,-3.95 3.89,-5.75 4.04,-7.55 4.05,-9.31 4.06,-11.07 4.29,-13.03 4.51,-14.98 5.05,-16.62 5.58,-18.26 7.54,-18.43 9.50,-18.59 10.53,-17.51 11.57,-16.43 12.43,-14.62 13.29,-12.82 14.08,-11.32 14.86,-9.83 15.31,-7.77 15.77,-5.72 15.81,-5.57 15.85,-5.42 15.86,-5.26 15.86,-5.10 15.83,-4.94 15.80,-4.79 15.73,-4.65 15.66,-4.50 15.56,-4.38 15.46,-4.26 15.33,-4.17 15.21,-4.07 15.06,-4.01 14.92,-3.95 14.76,-3.92 14.60,-3.90 14.45,-3.91 14.29,-3.93 14.14,-3.98 13.99,-4.03 13.85,-4.11 13.72,-4.20 13.61,-4.31 13.50,-4.43 13.42,-4.57 13.35,-4.70 13.63,-5.53 13.91,-6.36 14.11,-6.43 14.31,-6.50 14.53,-6.51 14.74,-6.51 14.94,-6.45 15.14,-6.39 15.32,-6.26 15.49,-6.14 15.61,-5.96 15.73,-5.79 15.80,-5.59 15.86,-5.38 15.85,-5.17 15.85,-4.96 15.77,-4.76 15.70,-4.56 15.56,-4.40 15.43,-4.23 15.25,-4.12 15.07,-4.00 14.86,-3.95 14.66,-3.90 14.45,-3.92 14.23,-3.94 14.04,-4.02 13.84,-4.11 13.69,-4.25 13.53,-4.39 13.43,-4.58 13.32,-4.76 13.28,-4.97 13.24,-5.18 13.27,-5.39 13.30,-5.60 13.40,-5.79 13.49,-5.98 13.64,-6.13 13.79,-6.28 13.98,-6.37 14.18,-6.47 14.39,-6.50 14.60,-6.52 14.81,-6.48 15.01,-6.44 15.20,-6.34 15.38,-6.23 15.52,-6.07 15.67,-5.91 15.75,-5.72 15.83,-5.52 15.85,-5.31 15.86,-5.10 15.81,-4.89 15.76,-4.69 15.65,-4.51 15.53,-4.33 15.65,-5.03 15.77,-5.72 15.81,-5.57 15.85,-5.42 15.86,-5.26 15.86,-5.10 15.83,-4.94 15.80,-4.79 15.73,-4.65 15.66,-4.50 15.56,-4.38 15.46,-4.26 15.33,-4.17 15.21,-4.07 15.06,-4.01 14.92,-3.95 14.76,-3.92 14.60,-3.90 14.45,-3.91 14.29,-3.93 14.14,-3.98 13.99,-4.03 13.85,-4.11 13.72,-4.20 13.61,-4.31 13.50,-4.43 13.42,-4.57 13.35,-4.70 11.56,-5.37 9.77,-6.03 9.18,-7.32 8.60,-8.62 7.87,-10.41 7.15,-12.20 6.92,-13.43 6.70,-14.67 8.29,-15.01 9.88,-15.35 9.77,-14.03 9.65,-12.70 9.63,-11.61 9.61,-10.51 9.51,-8.57 9.41,-6.63 9.15,-5.58 8.88,-4.54 8.76,-5.96 8.64,-7.38 8.81,-7.06 8.98,-6.74 9.07,-6.39 9.16,-6.04 9.16,-5.68 9.17,-5.32 9.08,-4.97 9.00,-4.62 8.83,-4.30 8.67,-3.98 8.43,-3.71 8.19,-3.44 7.90,-3.23 7.60,-3.02 7.27,-2.89 6.93,-2.76 6.57,-2.72 6.22,-2.67 5.86,-2.71 5.50,-2.75 5.16,-2.88 4.82,-3.00 4.52,-3.21 4.23,-3.41 3.99,-3.68 3.74,-3.94 3.11,-5.05 2.47,-6.16 1.51,-7.82 0.55,-9.48 -0.08,-10.48 -0.73,-11.47 -1.51,-12.90 -2.29,-14.33 -1.04,-14.81 0.20,-15.30 0.35,-13.76 0.51,-12.23 0.98,-9.50 1.44,-6.77 1.89,-4.68 2.34,-2.60 2.12,-1.47 1.89,-0.34 1.91,-0.11 1.92,0.11 1.88,0.34 1.84,0.57 1.74,0.78 1.65,1.00 1.50,1.18 1.36,1.36 1.17,1.51 0.99,1.65 0.78,1.74 0.57,1.84 0.34,1.88 0.11,1.92 -0.11,1.91 -0.35,1.89 -0.57,1.82 -0.79,1.75 -0.99,1.63 -1.19,1.51 -1.35,1.35 -1.52,1.18 -1.64,0.98 -1.76,0.78 -1.83,0.56 -1.89,0.34 -1.89,0.34 L -1.89,0.34 Z"/></g><g transform="translate(61.33332824707031 127.41667175292969) rotate(0 7.333335876464844 8.333328247070312)" stroke="none"><path fill="#000000" d="M 1.40,-0.15 Q 1.40,-0.15 2.35,1.48 3.31,3.12 3.40,4.60 3.49,6.08 3.62,7.28 3.74,8.49 3.90,9.55 4.05,10.62 4.39,11.77 4.72,12.93 5.80,12.39 6.87,11.86 8.26,10.81 9.65,9.76 11.72,10.54 13.78,11.32 13.92,11.25 14.07,11.18 14.22,11.15 14.38,11.11 14.53,11.12 14.69,11.12 14.84,11.16 15.00,11.20 15.14,11.28 15.27,11.36 15.39,11.46 15.51,11.57 15.59,11.70 15.68,11.83 15.73,11.98 15.79,12.13 15.80,12.29 15.82,12.45 15.80,12.60 15.77,12.76 15.71,12.91 15.66,13.05 15.56,13.18 15.47,13.31 15.35,13.41 15.23,13.52 15.50,12.81 15.78,12.10 15.80,12.31 15.82,12.52 15.76,12.73 15.71,12.93 15.60,13.11 15.49,13.29 15.32,13.43 15.16,13.56 14.96,13.63 14.76,13.71 14.55,13.72 14.33,13.72 14.13,13.66 13.93,13.60 13.75,13.48 13.58,13.35 13.46,13.18 13.33,13.01 13.27,12.81 13.21,12.60 13.21,12.39 13.21,12.18 13.29,11.98 13.36,11.78 13.49,11.61 13.62,11.45 13.80,11.33 13.98,11.22 14.19,11.16 14.39,11.11 14.61,11.13 14.82,11.14 15.01,11.23 15.21,11.31 15.37,11.45 15.53,11.59 15.63,11.78 15.74,11.96 15.78,12.17 15.82,12.38 15.79,12.59 15.76,12.80 15.67,12.99 15.58,13.18 15.43,13.33 15.28,13.48 15.09,13.58 14.90,13.67 14.69,13.70 14.48,13.73 14.27,13.69 14.06,13.65 13.87,13.55 13.69,13.45 13.54,13.29 13.40,13.13 13.59,12.23 13.78,11.32 13.92,11.25 14.07,11.18 14.22,11.15 14.37,11.11 14.53,11.12 14.69,11.12 14.84,11.16 15.00,11.20 15.14,11.28 15.27,11.36 15.39,11.46 15.51,11.57 15.59,11.70 15.68,11.83 15.73,11.98 15.79,12.13 15.80,12.29 15.82,12.45 15.80,12.60 15.77,12.76 15.71,12.91 15.66,13.05 15.56,13.18 15.47,13.31 15.35,13.41 15.23,13.52 13.62,14.52 12.02,15.52 10.48,16.72 8.95,17.93 7.89,18.55 6.83,19.17 5.71,19.42 4.59,19.66 3.24,19.27 1.89,18.88 1.10,18.17 0.30,17.45 -0.26,16.29 -0.83,15.13 -1.33,13.28 -1.83,11.42 -1.98,10.25 -2.13,9.09 -2.26,7.76 -2.40,6.42 -2.47,5.10 -2.54,3.77 -1.97,1.96 -1.40,0.15 -1.40,-0.01 -1.40,-0.18 -1.35,-0.34 -1.31,-0.51 -1.23,-0.66 -1.15,-0.81 -1.04,-0.94 -0.92,-1.06 -0.78,-1.16 -0.64,-1.25 -0.48,-1.31 -0.32,-1.37 -0.15,-1.39 0.01,-1.41 0.18,-1.39 0.35,-1.36 0.51,-1.30 0.66,-1.24 0.80,-1.14 0.94,-1.04 1.05,-0.91 1.17,-0.79 1.24,-0.63 1.32,-0.48 1.36,-0.32 1.40,-0.15 1.40,-0.15 L 1.40,-0.15 Z"/></g><g transform="translate(42.33332824707031 157.0833282470703) rotate(0 8.5 7.833343505859375)" stroke="none"><path fill="#000000" d="M 0.86,-1.72 Q 0.86,-1.72 1.70,-1.97 2.55,-2.21 3.68,-1.36 4.82,-0.51 5.90,0.77 6.98,2.05 7.67,2.90 8.37,3.74 9.14,4.67 9.92,5.61 10.68,6.42 11.43,7.24 12.12,8.05 12.80,8.87 13.58,9.72 14.37,10.57 15.30,11.39 16.24,12.20 14.49,13.26 12.75,14.32 12.48,12.94 12.21,11.56 12.32,10.39 12.42,9.23 12.46,8.11 12.50,7.00 12.62,5.81 12.74,4.61 14.19,2.58 15.64,0.55 15.67,0.40 15.70,0.24 15.76,0.10 15.83,-0.04 15.92,-0.16 16.02,-0.29 16.14,-0.39 16.27,-0.49 16.41,-0.55 16.55,-0.62 16.71,-0.65 16.86,-0.68 17.02,-0.67 17.18,-0.66 17.33,-0.62 17.48,-0.57 17.62,-0.49 17.76,-0.41 17.87,-0.30 17.98,-0.19 18.07,-0.05 18.15,0.07 18.20,0.22 18.25,0.37 18.26,0.53 18.27,0.69 18.21,0.38 18.15,0.08 18.21,0.28 18.26,0.49 18.25,0.70 18.24,0.91 18.16,1.11 18.08,1.30 17.94,1.47 17.80,1.63 17.62,1.73 17.44,1.84 17.23,1.89 17.02,1.93 16.81,1.91 16.60,1.88 16.40,1.79 16.21,1.70 16.06,1.56 15.91,1.41 15.81,1.22 15.71,1.03 15.68,0.82 15.64,0.61 15.68,0.40 15.71,0.19 15.81,0.01 15.92,-0.17 16.07,-0.32 16.23,-0.46 16.42,-0.55 16.61,-0.64 16.82,-0.66 17.04,-0.68 17.24,-0.63 17.45,-0.59 17.63,-0.48 17.81,-0.37 17.95,-0.20 18.09,-0.04 18.16,0.15 18.24,0.35 18.25,0.56 18.26,0.77 18.20,0.97 18.14,1.18 18.02,1.35 17.90,1.53 17.73,1.66 17.56,1.78 17.36,1.85 17.16,1.92 16.95,1.92 16.74,1.91 16.53,1.85 16.33,1.78 16.17,1.65 16.00,1.52 15.82,1.04 15.64,0.55 15.67,0.40 15.70,0.24 15.76,0.10 15.83,-0.04 15.92,-0.16 16.02,-0.29 16.14,-0.39 16.27,-0.49 16.41,-0.55 16.55,-0.62 16.71,-0.65 16.86,-0.68 17.02,-0.67 17.18,-0.66 17.33,-0.62 17.48,-0.57 17.62,-0.49 17.76,-0.41 17.87,-0.30 17.98,-0.19 18.07,-0.05 18.15,0.07 18.20,0.22 18.25,0.37 18.26,0.53 18.27,0.69 18.65,1.95 19.03,3.21 18.86,5.22 18.70,7.22 18.66,8.52 18.61,9.82 18.51,11.58 18.41,13.35 18.04,14.87 17.66,16.38 15.08,16.84 12.49,17.31 11.53,16.47 10.56,15.64 9.77,14.82 8.98,13.99 7.91,12.74 6.83,11.49 5.96,10.55 5.10,9.61 4.32,8.67 3.54,7.72 2.82,6.85 2.11,5.99 0.92,4.67 -0.25,3.36 -0.55,2.54 -0.86,1.72 -1.05,1.59 -1.24,1.46 -1.40,1.29 -1.56,1.12 -1.67,0.92 -1.78,0.71 -1.84,0.49 -1.90,0.26 -1.91,0.03 -1.91,-0.19 -1.86,-0.42 -1.81,-0.64 -1.71,-0.85 -1.60,-1.06 -1.45,-1.24 -1.30,-1.41 -1.11,-1.55 -0.92,-1.68 -0.71,-1.77 -0.49,-1.86 -0.26,-1.89 -0.03,-1.92 0.19,-1.90 0.42,-1.87 0.64,-1.80 0.86,-1.72 0.86,-1.72 L 0.86,-1.72 Z"/></g><g transform="translate(170.33334350585938 100.75) rotate(0 -24.833343505859375 26.166664123535156)" stroke="none"><path fill="#000000" d="M 1.36,1.23 Q 1.36,1.23 0.74,2.60 0.13,3.96 -0.68,5.02 -1.50,6.07 -2.61,7.30 -3.72,8.52 -4.81,9.77 -5.91,11.01 -7.09,12.25 -8.26,13.49 -9.43,14.69 -10.60,15.89 -11.76,17.07 -12.93,18.26 -14.00,19.33 -15.07,20.41 -16.10,21.44 -17.13,22.48 -18.19,23.45 -19.25,24.42 -20.11,25.14 -20.96,25.86 -22.16,26.86 -23.36,27.86 -24.36,28.57 -25.35,29.27 -26.26,30.03 -27.18,30.79 -28.08,31.78 -28.98,32.77 -29.82,33.47 -30.65,34.17 -31.07,35.35 -31.48,36.54 -32.32,37.77 -33.15,39.00 -34.04,40.33 -34.93,41.65 -35.57,42.73 -36.21,43.82 -36.88,44.78 -37.55,45.73 -38.44,46.97 -39.33,48.22 -40.49,49.55 -41.64,50.88 -43.97,50.91 -46.30,50.93 -46.66,49.67 -47.02,48.41 -47.12,47.24 -47.22,46.07 -47.36,44.93 -47.49,43.78 -47.72,42.75 -47.95,41.71 -48.32,40.09 -48.69,38.47 -49.35,36.86 -50.02,35.26 -49.87,36.06 -49.72,36.86 -49.94,36.54 -50.15,36.23 -50.29,35.88 -50.42,35.52 -50.47,35.15 -50.51,34.77 -50.47,34.40 -50.42,34.02 -50.29,33.67 -50.15,33.31 -49.94,33.00 -49.72,32.69 -49.44,32.44 -49.16,32.19 -48.82,32.01 -48.48,31.83 -48.12,31.74 -47.75,31.65 -47.37,31.65 -46.99,31.65 -46.62,31.74 -46.26,31.83 -45.92,32.01 -45.59,32.19 -45.30,32.44 -45.02,32.69 -43.79,33.86 -42.55,35.02 -41.11,36.63 -39.66,38.24 -38.79,39.24 -37.91,40.23 -37.07,41.23 -36.22,42.22 -35.43,43.07 -34.64,43.91 -33.33,45.26 -32.02,46.60 -31.15,47.59 -30.27,48.58 -29.56,50.63 -28.86,52.69 -30.49,53.69 -32.11,54.69 -33.42,54.47 -34.73,54.24 -36.37,53.83 -38.02,53.42 -39.67,53.26 -41.33,53.09 -43.18,53.07 -45.02,53.04 -46.68,52.25 -48.35,51.45 -48.42,51.65 -48.50,51.85 -48.64,52.01 -48.77,52.18 -48.95,52.29 -49.14,52.40 -49.34,52.44 -49.55,52.49 -49.76,52.47 -49.97,52.45 -50.17,52.36 -50.36,52.27 -50.52,52.13 -50.67,51.98 -50.77,51.79 -50.87,51.61 -50.91,51.40 -50.94,51.19 -50.91,50.98 -50.88,50.77 -50.78,50.58 -50.68,50.39 -50.53,50.25 -50.37,50.10 -50.18,50.01 -49.99,49.92 -49.78,49.89 -49.57,49.87 -49.36,49.91 -49.15,49.96 -48.97,50.07 -48.79,50.17 -48.65,50.34 -48.51,50.50 -48.43,50.69 -48.35,50.89 -48.34,51.10 -48.32,51.31 -48.38,51.52 -48.43,51.72 -48.55,51.90 -48.67,52.08 -48.84,52.21 -49.01,52.34 -49.21,52.41 -49.41,52.48 -49.62,52.48 -49.83,52.48 -50.04,52.41 -50.24,52.34 -50.41,52.22 -50.58,52.09 -50.70,51.91 -50.82,51.74 -50.88,51.53 -50.93,51.33 -50.92,51.12 -50.91,50.91 -50.91,50.91 -50.91,50.91 -48.81,48.93 -46.71,46.96 -44.90,46.99 -43.09,47.01 -42.02,47.05 -40.96,47.09 -39.77,47.18 -38.57,47.27 -37.20,47.55 -35.82,47.82 -34.58,48.13 -33.34,48.45 -32.18,49.09 -31.02,49.74 -32.52,50.60 -34.02,51.45 -33.95,52.64 -33.88,53.83 -34.70,52.83 -35.52,51.83 -36.57,50.75 -37.63,49.67 -38.39,48.89 -39.14,48.10 -40.02,47.16 -40.90,46.21 -41.72,45.26 -42.54,44.30 -43.33,43.40 -44.12,42.50 -45.01,41.58 -45.90,40.66 -46.94,39.56 -47.98,38.46 -48.85,37.66 -49.72,36.86 -49.94,36.54 -50.15,36.23 -50.29,35.88 -50.42,35.52 -50.47,35.15 -50.51,34.77 -50.47,34.40 -50.42,34.02 -50.29,33.67 -50.15,33.31 -49.94,33.00 -49.72,32.69 -49.44,32.44 -49.16,32.19 -48.82,32.01 -48.49,31.83 -48.12,31.74 -47.75,31.65 -47.37,31.65 -46.99,31.65 -46.62,31.74 -46.26,31.83 -45.92,32.01 -45.59,32.19 -45.30,32.44 -45.02,32.69 -44.65,33.41 -44.28,34.12 -43.52,35.53 -42.76,36.93 -42.36,38.68 -41.96,40.43 -41.69,41.75 -41.42,43.07 -41.40,45.30 -41.38,47.54 -43.61,47.31 -45.84,47.08 -45.25,46.07 -44.65,45.07 -43.80,43.92 -42.95,42.76 -42.20,41.66 -41.45,40.57 -40.73,39.36 -40.02,38.16 -39.33,37.19 -38.65,36.22 -37.79,35.10 -36.92,33.98 -36.22,32.54 -35.52,31.11 -34.42,29.94 -33.32,28.77 -32.49,27.85 -31.67,26.93 -30.76,26.22 -29.86,25.51 -28.79,24.69 -27.72,23.87 -26.87,23.21 -26.03,22.56 -24.55,21.38 -23.08,20.19 -22.12,19.33 -21.15,18.46 -20.12,17.43 -19.09,16.41 -18.02,15.34 -16.96,14.27 -15.80,13.10 -14.64,11.93 -13.49,10.77 -12.35,9.61 -11.23,8.44 -10.11,7.27 -8.98,6.01 -7.84,4.75 -6.86,3.68 -5.87,2.61 -4.91,1.43 -3.96,0.24 -2.66,-0.49 -1.36,-1.23 -1.19,-1.38 -1.02,-1.52 -0.82,-1.62 -0.63,-1.72 -0.41,-1.77 -0.19,-1.82 0.02,-1.82 0.24,-1.82 0.45,-1.76 0.67,-1.71 0.86,-1.60 1.06,-1.50 1.22,-1.35 1.39,-1.20 1.51,-1.01 1.63,-0.83 1.71,-0.62 1.79,-0.41 1.81,-0.19 1.83,0.02 1.80,0.24 1.78,0.46 1.69,0.66 1.61,0.87 1.48,1.05 1.36,1.23 1.36,1.23 L 1.36,1.23 Z"/></g><g transform="translate(154.66665649414062 132.0833282470703) rotate(0 7 9.666671752929688)" stroke="none"><path fill="#000000" d="M 1.24,-0.67 Q 1.24,-0.67 2.44,0.28 3.65,1.24 4.29,2.62 4.94,3.99 5.51,5.47 6.08,6.95 6.61,8.44 7.14,9.93 7.64,11.30 8.14,12.68 8.56,13.99 8.99,15.29 9.58,16.84 10.18,18.38 10.48,19.09 10.78,19.81 10.85,20.12 10.91,20.43 10.90,20.75 10.88,21.07 10.79,21.37 10.70,21.68 10.54,21.96 10.38,22.23 10.16,22.46 9.94,22.69 9.67,22.86 9.40,23.03 9.10,23.13 8.80,23.23 8.48,23.26 8.16,23.28 7.85,23.23 7.53,23.18 7.24,23.05 6.95,22.93 6.69,22.74 6.44,22.54 6.24,22.30 6.04,22.05 5.90,21.76 5.77,21.47 5.27,18.57 4.78,15.66 4.67,13.94 4.56,12.23 4.51,10.63 4.47,9.03 4.66,7.49 4.84,5.96 5.02,4.72 5.21,3.47 5.52,2.38 5.83,1.29 6.45,-0.05 7.07,-1.40 7.88,-2.31 8.69,-3.22 10.41,-3.76 12.12,-4.30 13.88,-3.41 15.65,-2.51 16.09,-1.42 16.54,-0.33 16.52,0.76 16.51,1.85 16.12,3.08 15.74,4.31 15.25,5.31 14.76,6.30 14.08,7.27 13.39,8.25 11.61,9.26 9.83,10.27 9.66,10.41 9.50,10.54 9.30,10.62 9.10,10.70 8.89,10.70 8.68,10.71 8.48,10.65 8.27,10.59 8.10,10.47 7.92,10.35 7.80,10.18 7.67,10.01 7.61,9.81 7.54,9.60 7.54,9.39 7.55,9.18 7.62,8.98 7.69,8.78 7.82,8.61 7.95,8.44 8.13,8.33 8.30,8.21 8.51,8.16 8.72,8.10 8.93,8.12 9.14,8.13 9.34,8.21 9.53,8.29 9.69,8.43 9.85,8.57 9.96,8.76 10.07,8.94 10.11,9.15 10.15,9.36 10.13,9.57 10.10,9.78 10.01,9.97 9.92,10.16 9.77,10.31 9.62,10.47 9.43,10.56 9.24,10.66 9.03,10.69 8.82,10.72 8.61,10.69 8.40,10.65 8.22,10.55 8.03,10.44 7.89,10.29 7.74,10.13 7.66,9.94 7.57,9.74 7.55,9.53 7.53,9.32 7.58,9.11 7.63,8.91 7.74,8.73 7.85,8.55 7.85,8.55 7.85,8.55 8.82,6.20 9.80,3.85 10.49,2.77 11.18,1.70 10.73,2.94 10.28,4.17 10.13,5.40 9.97,6.63 9.81,7.76 9.65,8.89 9.70,10.39 9.74,11.89 9.84,13.42 9.94,14.95 10.36,17.38 10.78,19.81 10.85,20.12 10.91,20.43 10.90,20.75 10.88,21.07 10.79,21.37 10.70,21.68 10.54,21.96 10.39,22.23 10.16,22.46 9.94,22.69 9.67,22.86 9.40,23.03 9.10,23.13 8.80,23.23 8.48,23.26 8.16,23.28 7.85,23.23 7.53,23.18 7.24,23.05 6.95,22.93 6.69,22.74 6.44,22.54 6.24,22.30 6.04,22.05 5.90,21.76 5.77,21.47 5.69,21.42 5.61,21.36 5.10,20.17 4.59,18.97 4.19,17.97 3.80,16.97 3.41,15.75 3.02,14.54 2.51,13.14 2.00,11.73 1.50,10.30 1.00,8.86 0.51,7.51 0.02,6.16 -0.46,4.95 -0.96,3.73 -1.10,2.20 -1.24,0.67 -1.30,0.51 -1.37,0.35 -1.39,0.18 -1.41,0.01 -1.39,-0.15 -1.37,-0.32 -1.32,-0.48 -1.26,-0.64 -1.16,-0.78 -1.07,-0.92 -0.94,-1.04 -0.81,-1.15 -0.66,-1.23 -0.51,-1.31 -0.35,-1.36 -0.18,-1.40 -0.01,-1.40 0.15,-1.40 0.32,-1.36 0.48,-1.33 0.64,-1.25 0.79,-1.17 0.92,-1.06 1.05,-0.95 1.14,-0.81 1.24,-0.67 1.24,-0.67 L 1.24,-0.67 Z"/></g><g transform="translate(176.66665649414062 135.75001525878906) rotate(0 6.16668701171875 2.83331298828125)" stroke="none"><path fill="#000000" d="M 2.09,0.16 Q 2.09,0.16 2.12,1.41 2.15,2.66 4.90,1.88 7.66,1.09 8.57,1.89 9.48,2.69 10.29,1.10 11.11,-0.48 11.23,-0.66 11.36,-0.83 11.53,-0.95 11.70,-1.08 11.90,-1.14 12.11,-1.20 12.32,-1.20 12.53,-1.20 12.73,-1.12 12.93,-1.05 13.10,-0.92 13.26,-0.79 13.38,-0.61 13.49,-0.43 13.55,-0.22 13.60,-0.02 13.58,0.18 13.57,0.40 13.48,0.59 13.40,0.79 13.26,0.95 13.12,1.11 12.93,1.21 12.75,1.32 12.54,1.36 12.33,1.40 12.12,1.37 11.91,1.34 11.72,1.25 11.53,1.16 11.38,1.01 11.23,0.86 11.13,0.67 11.04,0.48 11.01,0.27 10.98,0.06 11.02,-0.14 11.06,-0.35 11.16,-0.54 11.26,-0.72 11.42,-0.87 11.58,-1.01 11.77,-1.09 11.97,-1.18 12.18,-1.20 12.39,-1.21 12.60,-1.16 12.80,-1.11 12.98,-1.00 13.16,-0.89 13.30,-0.72 13.43,-0.56 13.51,-0.36 13.58,-0.16 13.59,0.04 13.59,0.26 13.53,0.46 13.47,0.66 13.47,0.66 13.47,0.66 12.75,2.68 12.02,4.69 11.33,5.61 10.64,6.53 9.58,6.92 8.51,7.31 7.26,6.72 6.01,6.12 5.18,5.00 4.35,3.88 5.74,4.35 7.13,4.81 6.39,5.84 5.65,6.86 4.06,7.76 2.47,8.66 1.12,8.31 -0.21,7.97 -1.18,6.77 -2.16,5.58 -2.35,3.94 -2.54,2.31 -2.32,1.07 -2.09,-0.16 -2.05,-0.41 -2.00,-0.65 -1.89,-0.88 -1.78,-1.11 -1.62,-1.31 -1.46,-1.51 -1.26,-1.66 -1.05,-1.82 -0.82,-1.92 -0.59,-2.02 -0.34,-2.06 -0.09,-2.10 0.16,-2.08 0.41,-2.06 0.65,-1.98 0.89,-1.90 1.11,-1.77 1.32,-1.63 1.50,-1.45 1.67,-1.27 1.80,-1.05 1.93,-0.83 2.00,-0.58 2.07,-0.34 2.08,-0.09 2.09,0.16 2.09,0.16 L 2.09,0.16 Z"/></g><g transform="translate(190.66665649414062 128.4166717529297) rotate(0 0.5 7.3333282470703125)" stroke="none"><path fill="#000000" d="M 1.10,0.88 Q 1.10,0.88 0.54,2.00 -0.01,3.11 -0.43,4.15 -0.84,5.19 0.48,4.52 1.80,3.85 3.42,4.79 5.04,5.74 5.69,7.40 6.34,9.07 6.09,10.81 5.85,12.55 3.70,13.97 1.56,15.39 1.37,15.48 1.18,15.58 0.97,15.61 0.76,15.64 0.55,15.60 0.34,15.56 0.16,15.46 -0.02,15.36 -0.16,15.20 -0.31,15.04 -0.39,14.85 -0.48,14.65 -0.49,14.44 -0.51,14.23 -0.46,14.02 -0.41,13.82 -0.30,13.64 -0.19,13.46 -0.02,13.32 0.13,13.19 0.33,13.11 0.53,13.04 0.74,13.03 0.95,13.03 1.16,13.09 1.36,13.15 1.53,13.27 1.71,13.39 1.83,13.56 1.96,13.74 2.02,13.94 2.09,14.14 2.08,14.35 2.08,14.57 2.01,14.77 1.93,14.97 1.80,15.13 1.67,15.30 1.49,15.41 1.31,15.53 1.11,15.58 0.90,15.64 0.69,15.62 0.48,15.60 0.28,15.52 0.09,15.44 -0.06,15.30 -0.22,15.16 -0.33,14.97 -0.43,14.79 -0.48,14.58 -0.52,14.37 -0.49,14.16 -0.46,13.95 -0.37,13.76 -0.28,13.57 -0.13,13.42 0.01,13.27 0.01,13.27 0.01,13.27 0.73,12.06 1.45,10.85 0.95,9.88 0.45,8.91 -0.81,8.99 -2.08,9.07 -3.33,8.36 -4.59,7.65 -4.77,6.33 -4.96,5.00 -4.53,3.79 -4.09,2.58 -3.57,1.64 -3.04,0.71 -2.07,-0.08 -1.10,-0.88 -0.97,-0.99 -0.85,-1.11 -0.71,-1.20 -0.56,-1.29 -0.40,-1.34 -0.23,-1.38 -0.07,-1.39 0.09,-1.40 0.26,-1.37 0.43,-1.34 0.58,-1.27 0.74,-1.19 0.87,-1.09 1.00,-0.98 1.11,-0.85 1.21,-0.71 1.28,-0.56 1.35,-0.40 1.37,-0.23 1.40,-0.07 1.39,0.09 1.38,0.26 1.33,0.43 1.27,0.59 1.19,0.73 1.10,0.88 1.10,0.88 L 1.10,0.88 Z"/></g><g transform="translate(196.33334350585938 114.08332824707031) rotate(0 10.166656494140625 15.166671752929688)" stroke="none"><path fill="#000000" d="M 1.99,-0.62 Q 1.99,-0.62 2.69,0.84 3.40,2.30 3.83,3.75 4.25,5.20 4.55,6.67 4.85,8.14 5.08,9.75 5.30,11.36 5.58,12.82 5.85,14.27 6.08,15.94 6.30,17.61 6.57,19.09 6.85,20.57 7.15,22.06 7.46,23.55 7.77,24.70 8.07,25.84 8.54,26.81 9.02,27.78 7.88,27.83 6.75,27.87 7.02,26.02 7.29,24.17 7.77,22.91 8.26,21.64 8.68,20.62 9.10,19.60 9.91,18.36 10.71,17.12 12.11,16.28 13.51,15.45 15.59,16.11 17.67,16.77 18.42,17.76 19.17,18.76 19.76,19.88 20.34,20.99 20.74,24.98 21.15,28.97 21.00,29.12 20.86,29.28 20.68,29.39 20.49,29.49 20.29,29.53 20.08,29.58 19.87,29.55 19.66,29.52 19.46,29.43 19.27,29.33 19.12,29.18 18.97,29.03 18.88,28.84 18.78,28.65 18.75,28.44 18.72,28.23 18.76,28.02 18.80,27.81 18.91,27.63 19.01,27.44 19.17,27.30 19.33,27.16 19.52,27.07 19.72,26.99 19.93,26.97 20.14,26.95 20.35,27.00 20.55,27.05 20.73,27.17 20.91,27.28 21.04,27.45 21.18,27.61 21.25,27.81 21.33,28.01 21.33,28.22 21.34,28.44 21.28,28.64 21.22,28.84 21.09,29.02 20.97,29.19 20.80,29.31 20.62,29.44 20.42,29.50 20.22,29.56 20.01,29.56 19.79,29.55 19.59,29.48 19.39,29.41 19.23,29.27 19.06,29.14 18.95,28.96 18.83,28.78 18.78,28.58 18.73,28.37 18.74,28.16 18.76,27.95 18.84,27.75 18.93,27.56 18.93,27.56 18.93,27.56 17.22,25.48 15.52,23.41 14.63,22.40 13.74,21.39 13.38,22.40 13.02,23.40 12.58,24.66 12.13,25.92 11.75,27.05 11.36,28.19 10.89,29.48 10.42,30.77 9.54,31.40 8.66,32.03 7.17,31.91 5.67,31.79 4.68,30.52 3.70,29.26 3.33,28.23 2.96,27.20 2.62,25.91 2.27,24.62 1.96,23.07 1.64,21.52 1.35,19.92 1.05,18.31 0.85,16.77 0.65,15.23 0.36,13.65 0.07,12.07 -0.11,10.60 -0.30,9.13 -0.53,7.87 -0.76,6.60 -1.12,5.21 -1.48,3.83 -1.73,2.22 -1.99,0.62 -2.03,0.37 -2.08,0.12 -2.06,-0.12 -2.05,-0.37 -1.97,-0.61 -1.90,-0.85 -1.77,-1.06 -1.64,-1.28 -1.46,-1.46 -1.28,-1.64 -1.07,-1.77 -0.85,-1.90 -0.61,-1.97 -0.37,-2.05 -0.12,-2.06 0.12,-2.08 0.37,-2.03 0.61,-1.99 0.84,-1.88 1.07,-1.78 1.27,-1.63 1.47,-1.47 1.62,-1.27 1.78,-1.08 1.88,-0.85 1.99,-0.62 1.99,-0.62 L 1.99,-0.62 Z"/></g><g transform="translate(84.66665649414062 69.75) rotate(0 -11.166664123535156 18)" stroke="none"><path fill="#000000" d="M 1.52,0.91 Q 1.52,0.91 1.22,2.03 0.91,3.15 0.43,4.10 -0.03,5.05 -0.61,6.23 -1.18,7.40 -2.03,8.92 -2.87,10.44 -3.78,12.11 -4.68,13.78 -6.20,16.53 -7.73,19.28 -8.85,21.30 -9.98,23.32 -11.06,25.09 -12.15,26.86 -13.12,28.24 -14.10,29.62 -14.87,30.73 -15.64,31.85 -16.32,32.69 -17.00,33.53 -19.03,35.01 -21.07,36.49 -21.22,36.64 -21.37,36.79 -21.56,36.88 -21.75,36.98 -21.96,37.00 -22.17,37.03 -22.38,36.99 -22.59,36.94 -22.77,36.84 -22.96,36.73 -23.10,36.57 -23.24,36.41 -23.32,36.22 -23.40,36.02 -23.42,35.81 -23.43,35.60 -23.38,35.39 -23.33,35.19 -23.21,35.01 -23.09,34.83 -22.93,34.70 -22.76,34.57 -22.56,34.50 -22.36,34.42 -22.15,34.42 -21.93,34.42 -21.73,34.48 -21.53,34.55 -21.36,34.67 -21.19,34.80 -21.06,34.97 -20.94,35.15 -20.88,35.35 -20.82,35.55 -20.83,35.76 -20.84,35.98 -20.91,36.18 -20.99,36.37 -21.12,36.54 -21.26,36.70 -21.44,36.82 -21.62,36.93 -21.82,36.98 -22.03,37.03 -22.24,37.01 -22.45,36.99 -22.65,36.90 -22.84,36.82 -23.00,36.67 -23.16,36.53 -23.26,36.34 -23.36,36.16 -23.40,35.95 -23.44,35.74 -23.41,35.53 -23.38,35.32 -23.28,35.13 -23.18,34.94 -23.18,34.94 -23.18,34.94 -22.58,33.05 -21.97,31.16 -21.01,29.98 -20.05,28.80 -19.27,27.66 -18.48,26.51 -17.60,25.28 -16.72,24.05 -15.68,22.37 -14.65,20.70 -13.51,18.67 -12.36,16.65 -10.79,13.96 -9.23,11.26 -8.27,9.58 -7.32,7.90 -6.50,6.49 -5.67,5.09 -5.03,3.89 -4.39,2.70 -3.80,1.68 -3.21,0.67 -2.37,-0.12 -1.52,-0.91 -1.39,-1.08 -1.26,-1.25 -1.09,-1.38 -0.92,-1.52 -0.73,-1.61 -0.53,-1.70 -0.32,-1.73 -0.11,-1.77 0.10,-1.76 0.31,-1.75 0.52,-1.69 0.72,-1.62 0.91,-1.51 1.09,-1.40 1.24,-1.25 1.39,-1.10 1.51,-0.92 1.62,-0.73 1.68,-0.53 1.75,-0.32 1.76,-0.11 1.77,0.10 1.74,0.31 1.70,0.52 1.61,0.72 1.52,0.91 1.52,0.91 L 1.52,0.91 Z"/></g><g transform="translate(65.33332824707031 105.41667175292969) rotate(0 2.5 -7.833343505859375)" stroke="none"><path fill="#000000" d="M -1.26,0.84 Q -1.26,0.84 -2.31,0.29 -3.35,-0.25 -4.24,-1.88 -5.12,-3.50 -5.71,-4.84 -6.30,-6.19 -6.93,-7.65 -7.56,-9.11 -7.95,-10.38 -8.35,-11.66 -8.62,-12.91 -8.89,-14.16 -8.73,-15.89 -8.57,-17.62 -7.18,-18.31 -5.80,-18.99 -4.55,-18.54 -3.30,-18.09 -2.41,-17.42 -1.52,-16.75 -0.43,-15.67 0.65,-14.58 1.96,-13.34 3.27,-12.11 4.16,-11.33 5.06,-10.55 6.01,-9.74 6.97,-8.93 7.81,-8.16 8.64,-7.39 9.57,-6.71 10.50,-6.03 11.63,-5.35 12.75,-4.66 13.02,-4.46 13.29,-4.25 13.50,-3.99 13.71,-3.73 13.85,-3.42 13.99,-3.11 14.06,-2.78 14.12,-2.45 14.11,-2.11 14.09,-1.78 13.99,-1.45 13.90,-1.13 13.73,-0.84 13.56,-0.55 13.32,-0.31 13.08,-0.07 12.80,0.10 12.51,0.28 12.19,0.38 11.87,0.49 11.53,0.51 11.20,0.54 10.86,0.48 10.53,0.42 10.22,0.29 9.91,0.16 11.28,0.10 12.64,0.04 11.10,0.20 9.56,0.36 7.79,0.44 6.01,0.52 4.86,0.66 3.71,0.80 1.77,1.10 -0.16,1.41 -2.45,1.55 -4.75,1.68 -4.96,1.74 -5.16,1.80 -5.37,1.79 -5.58,1.78 -5.78,1.71 -5.98,1.63 -6.14,1.49 -6.31,1.36 -6.42,1.18 -6.53,1.00 -6.58,0.79 -6.63,0.58 -6.60,0.37 -6.58,0.16 -6.50,-0.03 -6.41,-0.22 -6.26,-0.37 -6.12,-0.53 -5.93,-0.63 -5.75,-0.73 -5.54,-0.77 -5.33,-0.81 -5.12,-0.77 -4.91,-0.74 -4.72,-0.64 -4.53,-0.55 -4.38,-0.39 -4.24,-0.24 -4.14,-0.05 -4.05,0.13 -4.03,0.34 -4.00,0.55 -4.05,0.76 -4.09,0.97 -4.20,1.15 -4.31,1.34 -4.47,1.48 -4.63,1.62 -4.82,1.70 -5.02,1.78 -5.23,1.79 -5.44,1.80 -5.65,1.75 -5.85,1.69 -6.03,1.58 -6.21,1.46 -6.34,1.29 -6.47,1.12 -6.54,0.92 -6.61,0.72 -6.61,0.51 -6.61,0.30 -6.55,0.10 -6.48,-0.10 -6.35,-0.27 -6.23,-0.44 -6.05,-0.56 -5.88,-0.68 -5.88,-0.68 -5.88,-0.68 -4.24,-2.10 -2.61,-3.52 -0.86,-3.87 0.87,-4.22 1.99,-4.37 3.10,-4.53 4.31,-4.66 5.52,-4.79 7.57,-4.52 9.63,-4.26 11.19,-4.46 12.75,-4.66 13.02,-4.46 13.29,-4.25 13.50,-3.99 13.71,-3.73 13.85,-3.42 13.99,-3.11 14.06,-2.78 14.12,-2.45 14.11,-2.11 14.09,-1.78 13.99,-1.45 13.90,-1.13 13.73,-0.84 13.56,-0.55 13.32,-0.31 13.08,-0.07 12.80,0.10 12.51,0.28 12.19,0.38 11.87,0.49 11.53,0.51 11.20,0.54 10.86,0.48 10.53,0.42 10.22,0.29 9.91,0.16 9.14,-0.40 8.37,-0.98 7.38,-1.64 6.39,-2.30 4.94,-3.55 3.50,-4.80 2.52,-5.61 1.54,-6.42 0.60,-7.22 -0.34,-8.01 -1.22,-8.78 -2.10,-9.55 -3.10,-10.52 -4.09,-11.49 -4.59,-12.63 -5.09,-13.77 -4.53,-14.97 -3.97,-16.18 -3.54,-14.67 -3.11,-13.16 -2.76,-12.05 -2.41,-10.94 -1.92,-9.81 -1.44,-8.68 -0.85,-7.32 -0.26,-5.97 0.39,-4.58 1.05,-3.19 1.16,-2.01 1.26,-0.84 1.34,-0.67 1.42,-0.51 1.47,-0.33 1.51,-0.15 1.50,0.02 1.50,0.20 1.45,0.38 1.41,0.56 1.32,0.72 1.23,0.88 1.11,1.01 0.98,1.15 0.83,1.25 0.68,1.35 0.51,1.41 0.33,1.48 0.15,1.50 -0.02,1.51 -0.20,1.49 -0.38,1.46 -0.55,1.40 -0.72,1.33 -0.87,1.22 -1.02,1.12 -1.14,0.98 -1.26,0.84 -1.26,0.84 L -1.26,0.84 Z"/></g><g transform="translate(19 78.75) rotate(0 6.166664123535156 4.5)" stroke="none"><path fill="#000000" d="M 1.07,-0.99 Q 1.07,-0.99 2.78,-0.26 4.49,0.46 5.56,1.87 6.63,3.29 7.56,4.66 8.49,6.04 9.38,7.53 10.28,9.02 11.02,10.32 11.77,11.62 12.32,12.73 12.87,13.84 13.52,15.02 14.18,16.19 14.25,16.54 14.33,16.88 14.48,17.18 14.64,17.48 14.72,17.81 14.80,18.14 14.80,18.48 14.79,18.82 14.71,19.15 14.63,19.48 14.47,19.78 14.31,20.08 14.09,20.33 13.86,20.58 13.58,20.77 13.30,20.96 12.98,21.08 12.66,21.20 12.33,21.24 11.99,21.28 11.66,21.24 11.32,21.19 11.00,21.07 10.69,20.95 10.41,20.76 10.13,20.56 9.91,20.31 9.68,20.05 8.64,18.94 7.59,17.82 6.96,16.77 6.33,15.72 5.76,14.54 5.18,13.36 4.72,12.11 4.25,10.86 3.93,9.57 3.61,8.27 3.47,6.95 3.33,5.63 3.27,4.39 3.22,3.15 3.19,1.96 3.17,0.76 3.26,-0.42 3.34,-1.62 3.59,-2.90 3.83,-4.17 4.14,-5.25 4.44,-6.32 5.22,-7.86 6.00,-9.40 6.68,-10.30 7.36,-11.20 9.57,-11.49 11.79,-11.78 12.71,-10.88 13.63,-9.99 13.91,-8.62 14.18,-7.25 14.23,-5.91 14.28,-4.57 14.20,-3.14 14.12,-1.71 13.99,-0.51 13.85,0.68 13.48,2.36 13.12,4.03 11.13,5.53 9.14,7.03 8.95,7.12 8.76,7.21 8.54,7.23 8.33,7.25 8.13,7.21 7.92,7.16 7.74,7.05 7.56,6.94 7.42,6.78 7.28,6.61 7.20,6.42 7.13,6.22 7.11,6.01 7.10,5.79 7.16,5.59 7.22,5.38 7.34,5.21 7.46,5.03 7.63,4.91 7.80,4.78 8.00,4.71 8.20,4.64 8.41,4.64 8.63,4.65 8.83,4.71 9.03,4.78 9.20,4.91 9.37,5.04 9.48,5.22 9.60,5.39 9.66,5.60 9.72,5.80 9.70,6.02 9.69,6.23 9.61,6.43 9.53,6.62 9.39,6.78 9.26,6.94 9.07,7.05 8.89,7.16 8.68,7.21 8.48,7.25 8.26,7.23 8.05,7.20 7.86,7.11 7.67,7.02 7.51,6.88 7.36,6.73 7.26,6.54 7.16,6.35 7.13,6.14 7.10,5.94 7.13,5.73 7.17,5.52 7.27,5.33 7.37,5.14 7.52,5.00 7.68,4.85 7.68,4.85 7.68,4.85 7.63,3.19 7.58,1.53 7.84,-0.27 8.10,-2.08 8.18,-3.22 8.25,-4.36 9.07,-5.13 9.89,-5.89 9.35,-4.53 8.82,-3.16 8.52,-1.24 8.22,0.67 8.23,1.81 8.25,2.94 8.30,4.03 8.34,5.12 8.66,7.11 8.97,9.11 9.83,11.04 10.69,12.97 11.64,14.23 12.59,15.48 13.46,16.18 14.33,16.88 14.48,17.18 14.64,17.48 14.72,17.81 14.80,18.14 14.80,18.48 14.79,18.82 14.71,19.15 14.63,19.48 14.47,19.78 14.31,20.08 14.09,20.33 13.86,20.58 13.58,20.77 13.30,20.96 12.98,21.08 12.67,21.20 12.33,21.24 11.99,21.28 11.66,21.24 11.32,21.20 11.00,21.07 10.69,20.95 10.41,20.76 10.13,20.56 9.91,20.31 9.68,20.06 9.09,19.05 8.50,18.04 7.59,16.32 6.67,14.60 5.93,13.35 5.18,12.10 4.36,10.74 3.53,9.39 2.68,8.13 1.83,6.87 0.96,5.69 0.10,4.51 -0.48,2.75 -1.07,0.99 -1.17,0.84 -1.27,0.70 -1.34,0.54 -1.41,0.37 -1.43,0.20 -1.46,0.02 -1.44,-0.14 -1.42,-0.32 -1.36,-0.48 -1.30,-0.65 -1.21,-0.79 -1.11,-0.94 -0.98,-1.06 -0.85,-1.18 -0.70,-1.27 -0.54,-1.35 -0.37,-1.40 -0.20,-1.44 -0.02,-1.45 0.14,-1.45 0.31,-1.41 0.49,-1.37 0.64,-1.29 0.80,-1.21 0.93,-1.10 1.07,-0.99 1.07,-0.99 L 1.07,-0.99 Z"/></g><g transform="translate(34.33332824707031 67.41667175292969) rotate(0 6.166664123535156 4.8333282470703125)" stroke="none"><path fill="#000000" d="M 1.60,-0.12 Q 1.60,-0.12 2.13,1.08 2.66,2.30 2.96,3.54 3.25,4.78 4.08,5.89 4.90,7.00 4.70,5.73 4.50,4.45 5.05,2.63 5.61,0.82 7.45,0.55 9.30,0.28 10.24,0.97 11.18,1.65 11.98,2.38 12.79,3.12 12.87,3.41 12.94,3.70 13.04,3.82 13.14,3.94 13.21,4.08 13.28,4.23 13.31,4.38 13.34,4.54 13.34,4.69 13.33,4.85 13.29,5.00 13.24,5.16 13.17,5.29 13.09,5.43 12.98,5.55 12.87,5.66 12.74,5.75 12.60,5.83 12.45,5.88 12.30,5.93 12.14,5.94 11.99,5.96 11.83,5.93 11.67,5.91 11.53,5.85 11.38,5.79 11.25,5.69 11.13,5.60 10.94,4.99 10.75,4.38 10.82,4.19 10.90,3.99 11.03,3.82 11.17,3.66 11.35,3.55 11.53,3.43 11.74,3.38 11.94,3.34 12.15,3.35 12.37,3.37 12.56,3.46 12.75,3.55 12.91,3.69 13.07,3.83 13.17,4.02 13.27,4.21 13.31,4.42 13.35,4.62 13.32,4.83 13.29,5.04 13.19,5.23 13.09,5.42 12.94,5.57 12.79,5.72 12.60,5.81 12.41,5.91 12.20,5.93 11.99,5.96 11.78,5.92 11.57,5.87 11.38,5.77 11.20,5.66 11.06,5.50 10.92,5.34 10.84,5.14 10.76,4.95 10.74,4.74 10.73,4.52 10.78,4.32 10.83,4.11 10.95,3.94 11.07,3.76 11.23,3.63 11.40,3.50 11.60,3.42 11.80,3.35 12.01,3.35 12.23,3.35 12.43,3.41 12.63,3.48 12.80,3.60 12.97,3.73 13.10,3.90 13.22,4.07 13.28,4.28 13.34,4.48 13.14,4.09 12.94,3.70 13.04,3.82 13.14,3.94 13.21,4.08 13.28,4.23 13.31,4.38 13.34,4.54 13.34,4.69 13.33,4.85 13.29,5.00 13.24,5.16 13.17,5.29 13.09,5.43 12.98,5.55 12.87,5.66 12.74,5.75 12.60,5.83 12.45,5.88 12.30,5.93 12.14,5.94 11.99,5.96 11.83,5.93 11.67,5.91 11.53,5.85 11.38,5.79 11.26,5.69 11.13,5.60 9.75,5.51 8.36,5.42 9.15,4.57 9.93,3.72 9.74,5.17 9.56,6.61 9.03,8.23 8.51,9.84 7.29,10.90 6.08,11.95 4.71,12.05 3.34,12.14 2.09,11.38 0.84,10.62 0.08,9.57 -0.67,8.51 -1.19,7.26 -1.71,6.00 -1.99,4.34 -2.28,2.68 -1.94,1.40 -1.60,0.12 -1.59,-0.07 -1.58,-0.26 -1.53,-0.45 -1.47,-0.63 -1.38,-0.80 -1.28,-0.97 -1.14,-1.11 -1.01,-1.25 -0.84,-1.35 -0.68,-1.45 -0.50,-1.51 -0.31,-1.57 -0.12,-1.59 0.07,-1.60 0.26,-1.57 0.45,-1.54 0.63,-1.46 0.81,-1.39 0.96,-1.27 1.12,-1.15 1.24,-1.00 1.36,-0.85 1.44,-0.67 1.52,-0.50 1.56,-0.31 1.60,-0.12 1.60,-0.12 L 1.60,-0.12 Z"/></g><g transform="translate(38.33332824707031 56.08332824707031) rotate(0 5.833335876464844 8.333335876464844)" stroke="none"><path fill="#000000" d="M 1.56,-1.36 Q 1.56,-1.36 3.23,-0.12 4.90,1.11 5.92,2.40 6.93,3.69 7.79,4.97 8.65,6.25 9.37,7.33 10.08,8.41 10.68,9.39 11.27,10.37 12.02,11.84 12.77,13.31 11.75,13.93 10.73,14.54 10.25,11.94 9.77,9.33 9.79,9.12 9.80,8.91 9.88,8.71 9.96,8.52 10.10,8.36 10.24,8.20 10.43,8.09 10.61,7.98 10.82,7.94 11.03,7.90 11.24,7.92 11.45,7.95 11.64,8.04 11.83,8.13 11.98,8.28 12.14,8.43 12.23,8.62 12.33,8.81 12.36,9.02 12.39,9.23 12.36,9.43 12.32,9.64 12.22,9.83 12.11,10.02 11.96,10.16 11.80,10.30 11.61,10.39 11.41,10.48 11.20,10.50 10.99,10.52 10.78,10.47 10.58,10.42 10.40,10.31 10.22,10.20 10.08,10.04 9.95,9.87 9.87,9.67 9.79,9.47 9.78,9.26 9.78,9.05 9.84,8.85 9.89,8.64 10.02,8.47 10.14,8.29 10.31,8.17 10.48,8.04 10.68,7.98 10.88,7.91 11.10,7.91 11.31,7.92 11.51,7.99 11.71,8.06 11.88,8.19 12.04,8.32 12.16,8.50 12.28,8.67 12.33,8.88 12.39,9.08 12.39,9.08 12.39,9.08 12.85,11.04 13.31,13.00 13.54,14.61 13.76,16.23 12.97,17.33 12.17,18.42 10.14,17.30 8.10,16.18 7.20,14.84 6.30,13.51 5.71,12.61 5.11,11.71 4.39,10.63 3.67,9.55 2.96,8.44 2.24,7.34 1.34,6.17 0.45,5.01 -0.55,3.19 -1.56,1.36 -1.70,1.16 -1.84,0.95 -1.93,0.71 -2.02,0.48 -2.05,0.23 -2.07,-0.01 -2.04,-0.26 -2.01,-0.50 -1.92,-0.74 -1.83,-0.97 -1.69,-1.18 -1.54,-1.38 -1.35,-1.55 -1.17,-1.71 -0.94,-1.83 -0.72,-1.94 -0.48,-2.00 -0.23,-2.06 0.01,-2.06 0.26,-2.06 0.50,-2.00 0.74,-1.93 0.97,-1.82 1.19,-1.70 1.37,-1.53 1.56,-1.36 1.56,-1.36 L 1.56,-1.36 Z"/></g><g transform="translate(46.33332824707031 56.08332824707031) rotate(0 6.5 5.5)" stroke="none"><path fill="#000000" d="M 1.29,-1.09 Q 1.29,-1.09 2.72,-0.16 4.14,0.76 4.91,1.69 5.67,2.63 6.65,4.12 7.64,5.60 8.34,6.67 9.04,7.74 9.55,8.36 10.06,8.98 10.23,9.25 10.41,9.51 10.52,9.81 10.63,10.11 10.66,10.43 10.70,10.74 10.66,11.06 10.61,11.37 10.50,11.67 10.38,11.96 10.20,12.22 10.01,12.48 9.77,12.69 9.53,12.90 9.25,13.04 8.97,13.19 8.66,13.26 8.35,13.33 8.03,13.33 7.71,13.32 7.40,13.24 7.09,13.16 6.82,13.01 6.54,12.86 6.30,12.65 6.07,12.43 6.11,10.74 6.15,9.04 6.35,7.58 6.54,6.12 6.64,4.86 6.75,3.61 6.67,2.63 6.59,1.66 6.62,1.37 6.66,1.09 6.76,0.81 6.87,0.54 7.04,0.31 7.20,0.07 7.42,-0.11 7.64,-0.30 7.90,-0.44 8.15,-0.57 8.44,-0.64 8.72,-0.71 9.01,-0.70 9.30,-0.70 9.58,-0.63 9.86,-0.56 10.12,-0.42 10.37,-0.29 10.59,-0.09 10.81,0.09 10.97,0.33 11.13,0.57 11.23,0.84 11.34,1.11 11.37,1.40 11.40,1.69 12.36,2.17 13.32,2.65 14.08,3.53 14.84,4.40 14.10,7.47 13.35,10.54 13.23,10.71 13.11,10.89 12.94,11.01 12.76,11.14 12.56,11.20 12.36,11.26 12.15,11.26 11.93,11.26 11.73,11.18 11.53,11.11 11.37,10.98 11.20,10.85 11.09,10.67 10.97,10.49 10.92,10.29 10.86,10.08 10.88,9.87 10.90,9.66 10.98,9.46 11.06,9.27 11.20,9.11 11.34,8.95 11.53,8.84 11.71,8.74 11.92,8.69 12.13,8.65 12.34,8.68 12.55,8.71 12.74,8.80 12.93,8.89 13.08,9.04 13.23,9.19 13.33,9.38 13.42,9.57 13.45,9.78 13.49,9.99 13.45,10.20 13.41,10.41 13.30,10.59 13.20,10.78 13.04,10.92 12.89,11.07 12.69,11.15 12.50,11.24 12.29,11.26 12.08,11.27 11.87,11.22 11.66,11.17 11.48,11.06 11.30,10.95 11.17,10.78 11.03,10.62 10.96,10.42 10.88,10.22 10.88,10.01 10.87,9.80 10.93,9.59 10.99,9.39 10.99,9.39 10.99,9.39 10.15,7.68 9.31,5.98 8.42,4.94 7.53,3.90 7.06,2.78 6.59,1.66 6.62,1.37 6.66,1.09 6.76,0.81 6.87,0.54 7.04,0.31 7.20,0.07 7.42,-0.11 7.64,-0.30 7.90,-0.44 8.15,-0.57 8.44,-0.64 8.72,-0.71 9.01,-0.70 9.30,-0.70 9.58,-0.63 9.86,-0.56 10.12,-0.42 10.37,-0.29 10.59,-0.09 10.81,0.09 10.97,0.33 11.13,0.57 11.23,0.84 11.34,1.11 11.37,1.40 11.40,1.69 11.29,2.71 11.19,3.73 11.16,5.25 11.14,6.76 11.04,8.17 10.95,9.57 10.61,10.75 10.28,11.94 10.17,10.46 10.06,8.98 10.23,9.25 10.41,9.51 10.52,9.81 10.63,10.11 10.66,10.43 10.70,10.74 10.66,11.06 10.61,11.37 10.50,11.67 10.38,11.96 10.20,12.22 10.01,12.48 9.77,12.69 9.53,12.90 9.25,13.04 8.97,13.19 8.66,13.26 8.35,13.33 8.03,13.33 7.71,13.32 7.40,13.24 7.10,13.16 6.82,13.01 6.54,12.86 6.30,12.65 6.07,12.43 5.33,11.57 4.59,10.71 3.87,9.64 3.15,8.57 2.32,7.28 1.48,6.00 0.77,5.11 0.06,4.21 -0.61,2.65 -1.29,1.09 -1.40,0.92 -1.52,0.75 -1.58,0.56 -1.65,0.36 -1.67,0.16 -1.69,-0.03 -1.66,-0.24 -1.63,-0.44 -1.56,-0.63 -1.48,-0.82 -1.36,-0.98 -1.24,-1.15 -1.08,-1.28 -0.93,-1.41 -0.74,-1.50 -0.56,-1.60 -0.36,-1.64 -0.16,-1.68 0.03,-1.68 0.24,-1.67 0.44,-1.62 0.63,-1.57 0.81,-1.47 0.99,-1.37 1.14,-1.23 1.29,-1.09 1.29,-1.09 L 1.29,-1.09 Z"/></g></svg>